# xmcd
#
# Track frame offsets:
#	150
#	11182
#	39185
#	63250
#	81295
#	120235
#	142050
#	161190
#	175722
#	188315
#	197625
#
# Disc length: 2794 seconds
#
# Revision: 1
# Processed by: cddbd v1.4PL0 Copyright (c) Steve Scherf et al.
# Submitted via: audiograbber 1.82.01
#
DISCID=870ae80b
DTITLE=Nelson Willy - Home On The Road
DYEAR=1993
DGENRE=Rock
TTITLE0=Whiskey River ( The Intro )
TTITLE1=Night Life
TTITLE2=Across The Borderline
TTITLE3=Heartland
TTITLE4=Don't Give Up - with Shawn Colvin
TTITLE5=The Most Original Sin
TTITLE6=Still Is Still Movin Too Me
TTITLE7=Midnight Rodeo
TTITLE8=Blue Eyes Cryin In The Rain
TTITLE9=On The Road Again
TTITLE10=Whiskey River ( The Outro )
EXTD=
EXTT0=
EXTT1=
EXTT2=
EXTT3=
EXTT4=
EXTT5=
EXTT6=
EXTT7=
EXTT8=
EXTT9=
EXTT10=
PLAYORDER=
